# xmcd
#
# Track frame offsets:
#	150
#	16746
#	33850
#	51142
#	66634
#	83306
#	104084
#	117958
#	132908
#	145203
#	158099
#	176150
#	193417
#	211147
#	224676
#	240688
#	254289
#	273989
#	288906
#	304625
#	320528
#
# Disc length: 4497 seconds
#
# Revision: 0
# Processed by: cddbd v1.5.2PL0 Copyright (c) Steve Scherf et al.
# Submitted via: EZCDAudioConverter 3.1.0.1
#
DISCID=39118f15
DTITLE=Nu Urban Traxx Volume 236 US
DYEAR=2017
DGENRE=blue
TTITLE0=Drake - Free Smoke
TTITLE1=TLC ft. Snoop Dogg - Wayback
TTITLE2=Trey Songz - Nobody Else But You
TTITLE3=Future - Mask Off
TTITLE4=Chris Brown - Privacy
TTITLE5=Mike Will Made-It ft. 21 Savage - Gucci On My
TTITLE6=Lil Uzi Vert - Lil Uzi Vert	XO TOUR Llif3
TTITLE7=YFN Lucci ft. PnB Rock - Everyday We Lit
TTITLE8=Logic - Everybody
TTITLE9=Amine - Redmercedes
TTITLE10=Ayo and Teo - Rolex
TTITLE11=Sahbabii - Pull Up Wit Ah Stick
TTITLE12=Desiigner - Up
TTITLE13=Drake - Passionfruit
TTITLE14=WizKid ft. Drake - Come Closer
TTITLE15=Kid Ink ft. Ty Dolla $ign - F With U
TTITLE16=A$AP Ferg ft. Remy Ma - East Coast
TTITLE17=Marian Hill - Down
TTITLE18=GoldLink ft. Brent Faiaz and Shy Glizzy - Crew
TTITLE19=O.T Genasis ft. 2 Chainz - Thick
TTITLE20=YG ft. DJ Mustard - Pop It, Shake It
EXTD=
EXTT0=
EXTT1=
EXTT2=
EXTT3=
EXTT4=
EXTT5=
EXTT6=
EXTT7=
EXTT8=
EXTT9=
EXTT10=
EXTT11=
EXTT12=
EXTT13=
EXTT14=
EXTT15=
EXTT16=
EXTT17=
EXTT18=
EXTT19=
EXTT20=
PLAYORDER=
